<svg fill="currentColor" viewBox="0 0 24 24" xmlns="http://www.w3.org/2000/svg">
  <path fillRule="evenodd" d="M 19.769531 3.25 L 6.230469 3.25 C 4.585938 3.25 3.25 4.585938 3.25 6.230469 L 3.25 19.769531 C 3.25 21.414062 4.585938 22.75 6.230469 22.75 L 19.769531 22.75 C 21.414062 22.75 22.75 21.414062 22.75 19.769531 L 22.75 6.230469 C 22.75 4.585938 21.414062 3.25 19.769531 3.25 Z M 9.75 18.417969 C 9.75 18.71875 9.507812 18.957031 9.207031 18.957031 L 7.582031 18.957031 C 7.28125 18.957031 7.042969 18.71875 7.042969 18.417969 L 7.042969 11.375 C 7.042969 11.074219 7.28125 10.832031 7.582031 10.832031 L 9.207031 10.832031 C 9.507812 10.832031 9.75 11.074219 9.75 11.375 Z M 8.394531 9.75 C 7.648438 9.75 7.042969 9.144531 7.042969 8.394531 C 7.042969 7.648438 7.648438 7.042969 8.394531 7.042969 C 9.144531 7.042969 9.75 7.648438 9.75 8.394531 C 9.75 9.144531 9.144531 9.75 8.394531 9.75 Z M 18.957031 18.417969 C 18.957031 18.71875 18.71875 18.957031 18.417969 18.957031 L 16.792969 18.957031 C 16.492188 18.957031 16.25 18.71875 16.25 18.417969 L 16.25 14.355469 C 16.25 13.605469 15.644531 13 14.894531 13 C 14.148438 13 13.542969 13.605469 13.542969 14.355469 L 13.542969 18.417969 C 13.542969 18.71875 13.300781 18.957031 13 18.957031 L 11.375 18.957031 C 11.074219 18.957031 10.832031 18.71875 10.832031 18.417969 L 10.832031 11.375 C 10.832031 11.074219 11.074219 10.832031 11.375 10.832031 L 13 10.832031 C 13.300781 10.832031 13.542969 11.074219 13.542969 11.375 L 13.542969 11.667969 C 14.117188 11.152344 14.875 10.832031 15.707031 10.832031 C 17.503906 10.832031 18.957031 12.289062 18.957031 14.082031 Z M 18.957031 18.417969 " clipRule="evenodd"></path>
</svg>
