<svg fill="currentColor" viewBox="0 0 20 20" xmlns="http://www.w3.org/2000/svg">
  <path d="M 11.011719 1.832031 C 5.964844 1.832031 1.855469 5.9375 1.851562 10.984375 C 1.851562 12.597656 2.273438 14.175781 3.074219 15.5625 L 1.832031 20.167969 L 6.628906 19.035156 C 7.96875 19.761719 9.472656 20.144531 11.003906 20.148438 L 11.007812 20.148438 C 16.054688 20.148438 20.164062 16.039062 20.164062 10.996094 C 20.167969 8.546875 19.214844 6.246094 17.488281 4.515625 C 15.757812 2.789062 13.460938 1.835938 11.011719 1.832031 Z M 11.007812 3.667969 C 12.96875 3.667969 14.808594 4.429688 16.191406 5.8125 C 17.574219 7.199219 18.332031 9.035156 18.332031 10.992188 C 18.328125 15.03125 15.046875 18.3125 11.007812 18.3125 C 9.785156 18.3125 8.574219 18.007812 7.507812 17.421875 L 6.890625 17.085938 L 6.210938 17.25 L 4.402344 17.675781 L 4.84375 16.039062 L 5.042969 15.304688 L 4.664062 14.644531 C 4.023438 13.539062 3.683594 12.273438 3.6875 10.984375 C 3.6875 6.949219 6.972656 3.667969 11.007812 3.667969 Z M 7.769531 6.761719 C 7.617188 6.761719 7.371094 6.816406 7.160156 7.046875 C 6.949219 7.273438 6.359375 7.828125 6.359375 8.953125 C 6.359375 10.078125 7.175781 11.167969 7.292969 11.320312 C 7.40625 11.472656 8.875 13.855469 11.199219 14.773438 C 13.132812 15.535156 13.523438 15.382812 13.945312 15.34375 C 14.363281 15.308594 15.300781 14.792969 15.492188 14.257812 C 15.679688 13.722656 15.679688 13.265625 15.625 13.171875 C 15.566406 13.074219 15.414062 13.019531 15.1875 12.902344 C 14.957031 12.789062 13.832031 12.234375 13.621094 12.160156 C 13.414062 12.085938 13.257812 12.046875 13.105469 12.273438 C 12.957031 12.503906 12.519531 13.019531 12.382812 13.171875 C 12.25 13.324219 12.117188 13.34375 11.886719 13.230469 C 11.660156 13.113281 10.921875 12.871094 10.046875 12.09375 C 9.367188 11.484375 8.910156 10.738281 8.773438 10.507812 C 8.640625 10.28125 8.761719 10.15625 8.875 10.042969 C 8.980469 9.941406 9.105469 9.773438 9.21875 9.640625 C 9.332031 9.507812 9.371094 9.410156 9.449219 9.257812 C 9.523438 9.109375 9.484375 8.972656 9.429688 8.859375 C 9.371094 8.742188 8.925781 7.613281 8.722656 7.160156 C 8.550781 6.78125 8.371094 6.773438 8.207031 6.765625 C 8.074219 6.761719 7.921875 6.761719 7.769531 6.761719 Z M 7.769531 6.761719 "></path>
</svg>
